<svg width="281" height="281" viewBox="0 0 281 281" fill="none" xmlns="http://www.w3.org/2000/svg">
<g filter="url(#filter0_d)">
<circle cx="140.108" cy="130.646" r="89.9739" fill="url(#paint0_linear)"/>
<g filter="url(#filter1_i)">
<circle cx="140.108" cy="130.646" r="72.4854" fill="url(#paint1_linear)"/>
</g>
<g style="mix-blend-mode:overlay" filter="url(#filter2_i)">
<path d="M137.706 181.33H143.565V172.013C160.44 171.017 172.569 162.052 172.569 147.228C172.569 134.396 164.19 127.951 148.136 124.318L143.565 123.322V102.697C150.362 103.517 154.991 107.209 155.811 113.654H171.397C170.87 99.7087 160.089 90.5681 143.565 89.4548V79.9626H137.706V89.4548C121.358 90.2751 109.64 99.4158 109.64 113.537C109.64 126.193 118.018 133.049 133.37 136.506L137.706 137.502V158.83C129.444 158.068 125.108 153.908 124.112 147.814H108.468C108.878 162.58 121.007 171.252 137.706 172.013V181.33ZM126.046 112.013C126.046 107.267 130.03 103.342 137.706 102.638V121.974C129.503 119.865 126.046 116.76 126.046 112.013ZM156.222 149.045C156.222 154.435 152.003 158.185 143.565 158.83V138.849C152.94 141.193 156.222 143.83 156.222 149.045Z" fill="#3F3F3F"/>
</g>
</g>
<defs>
<filter id="filter0_d" x="0.13385" y="0.672119" width="279.948" height="279.948" filterUnits="userSpaceOnUse" color-interpolation-filters="sRGB">
<feFlood flood-opacity="0" result="BackgroundImageFix"/>
<feColorMatrix in="SourceAlpha" type="matrix" values="0 0 0 0 0 0 0 0 0 0 0 0 0 0 0 0 0 0 127 0"/>
<feOffset dy="10"/>
<feGaussianBlur stdDeviation="25"/>
<feColorMatrix type="matrix" values="0 0 0 0 1 0 0 0 0 0.749167 0 0 0 0 0.104167 0 0 0 0.7 0"/>
<feBlend mode="normal" in2="BackgroundImageFix" result="effect1_dropShadow"/>
<feBlend mode="normal" in="SourceGraphic" in2="effect1_dropShadow" result="shape"/>
</filter>
<filter id="filter1_i" x="67.6223" y="58.1609" width="147.971" height="147.971" filterUnits="userSpaceOnUse" color-interpolation-filters="sRGB">
<feFlood flood-opacity="0" result="BackgroundImageFix"/>
<feBlend mode="normal" in="SourceGraphic" in2="BackgroundImageFix" result="shape"/>
<feColorMatrix in="SourceAlpha" type="matrix" values="0 0 0 0 0 0 0 0 0 0 0 0 0 0 0 0 0 0 127 0" result="hardAlpha"/>
<feOffset dx="3" dy="3"/>
<feGaussianBlur stdDeviation="2"/>
<feComposite in2="hardAlpha" operator="arithmetic" k2="-1" k3="1"/>
<feColorMatrix type="matrix" values="0 0 0 0 1 0 0 0 0 0 0 0 0 0 0 0 0 0 0.15 0"/>
<feBlend mode="normal" in2="shape" result="effect1_innerShadow"/>
</filter>
<filter id="filter2_i" x="108.468" y="79.9626" width="66.1016" height="103.367" filterUnits="userSpaceOnUse" color-interpolation-filters="sRGB">
<feFlood flood-opacity="0" result="BackgroundImageFix"/>
<feBlend mode="normal" in="SourceGraphic" in2="BackgroundImageFix" result="shape"/>
<feColorMatrix in="SourceAlpha" type="matrix" values="0 0 0 0 0 0 0 0 0 0 0 0 0 0 0 0 0 0 127 0" result="hardAlpha"/>
<feOffset dx="2" dy="2"/>
<feGaussianBlur stdDeviation="1.5"/>
<feComposite in2="hardAlpha" operator="arithmetic" k2="-1" k3="1"/>
<feColorMatrix type="matrix" values="0 0 0 0 0 0 0 0 0 0 0 0 0 0 0 0 0 0 0.5 0"/>
<feBlend mode="normal" in2="shape" result="effect1_innerShadow"/>
</filter>
<linearGradient id="paint0_linear" x1="50.1339" y1="40.6721" x2="230.082" y2="220.62" gradientUnits="userSpaceOnUse">
<stop stop-color="#FFEBA6"/>
<stop offset="1" stop-color="#FFA800"/>
</linearGradient>
<linearGradient id="paint1_linear" x1="67.6223" y1="58.1609" x2="212.593" y2="203.132" gradientUnits="userSpaceOnUse">
<stop stop-color="#FFC34F"/>
<stop offset="1" stop-color="#FF8A00"/>
</linearGradient>
</defs>
</svg>
