<svg width="31" height="31" viewBox="0 0 31 31" fill="none" xmlns="http://www.w3.org/2000/svg">
<path fill-rule="evenodd" clip-rule="evenodd" d="M15.2711 0.312012C16.0838 0.312012 16.7426 0.970835 16.7426 1.78353V4.47686C18.6902 4.70859 20.481 5.45128 21.9772 6.5671L23.8265 4.71778C24.4012 4.14312 25.3329 4.14312 25.9076 4.71778C26.4823 5.29245 26.4823 6.22417 25.9076 6.79883L24.0803 8.62611C25.2426 10.1176 26.0275 11.9176 26.2913 13.8827H28.8418C29.6545 13.8827 30.3134 14.5415 30.3134 15.3542C30.3134 16.1669 29.6545 16.8258 28.8418 16.8258H26.2913C26.0275 18.7909 25.2426 20.5909 24.0803 22.0824L25.9076 23.9097C26.4823 24.4843 26.4823 25.4161 25.9076 25.9907C25.3329 26.5654 24.4012 26.5654 23.8265 25.9907L21.9772 24.1414C20.481 25.2572 18.6902 25.9999 16.7426 26.2316V28.925C16.7426 29.7377 16.0838 30.3965 15.2711 30.3965C14.4584 30.3965 13.7996 29.7377 13.7996 28.925V26.1877C11.8981 25.9032 10.1565 25.1299 8.70648 23.9999L6.7157 25.9907C6.14103 26.5654 5.20931 26.5654 4.63465 25.9907C4.05998 25.4161 4.05998 24.4843 4.63465 23.9097L6.64747 21.8968C5.56295 20.4426 4.83092 18.7101 4.57793 16.8258H1.70041C0.887705 16.8258 0.228882 16.1669 0.228882 15.3542C0.228882 14.5415 0.887705 13.8827 1.7004 13.8827H4.57793C4.83092 11.9984 5.56295 10.2659 6.64747 8.81165L4.63465 6.79883C4.05999 6.22417 4.05999 5.29245 4.63465 4.71778C5.20932 4.14312 6.14103 4.14312 6.7157 4.71778L8.70648 6.70856C10.1565 5.57855 11.8981 4.80532 13.7996 4.52077V1.78353C13.7996 0.970835 14.4584 0.312012 15.2711 0.312012ZM23.4462 15.3542C23.4462 10.9296 19.8593 7.34262 15.4346 7.34262C11.0099 7.34262 7.423 10.9296 7.423 15.3542C7.423 19.7789 11.0099 23.3659 15.4346 23.3659C19.8593 23.3659 23.4462 19.7789 23.4462 15.3542Z" fill="#fff"/>
</svg>
